<svg id="Capa_1" enable-background="new 0 0 507.871 507.871" height="512" viewBox="0 0 507.871 507.871" width="512" xmlns="http://www.w3.org/2000/svg"><g><path d="m393.057 109.92c-5.522 0-10-4.478-10-10s4.478-10 10-10h5c5.522 0 10 4.478 10 10s-4.478 10-10 10zm100.92 43.04-51.33 52.569c-7.19 7.37-25.138 23.778-51.32 33.36-7.018 2.569-12.809 7.745-16.126 14.234l-4.163 49.561c-.475 5.655.575 11.192 3.036 16.015 14.859 29.114 21.769 61.356 20.191 93.854 19.978 2.299 38.729 10.843 53.639 24.661 13.605 12.609 4.573 34.706-13.566 34.706h-79.291c-18.831.001-34.868-12.778-38.999-31.078-7.66-33.931-10.67-68.623-8.985-103.343-11.37 8.184-23.533 15.16-36.384 20.863 4.637 17.526 1.411 41.784-19.825 56.877 14.658 3.978 28.193 11.502 39.617 21.972 13.2 12.097 4.974 34.71-13.561 34.71h-108.853c-49.579 0-98.372-12.676-141.104-36.658-16.639-9.338-26.714-26.29-26.949-45.346-.199-16.136 6.674-30.946 18.725-41.058-3.801-11.035-4.446-25.228 1.257-39.018 2.682-6.484 5.6-13.021 8.65-19.44 0-.01 0-.01 0-.01 5.698-11.994 23.758-3.414 18.06 8.58-2.906 6.117-5.66 12.354-8.23 18.53-3.087 7.42-3.087 15.097-2.019 20.374 28.921-15.296 72.803-30.374 120.354-28.895l86.756-50.634c27.85-16.255 53.484-36.104 76.191-58.998l34.756-35.041c14.541-14.66 31.636-25.981 50.808-33.647l77.511-30.993-2.766-7.585c-3.87-10.58-13.51-18.23-24.57-19.5-11.939-1.381-24.1-2.23-36.13-2.53-3.23-.08-6.269-1.711-8.04-4.41-8.26-12.591-28.776-13.881-37.44 1.51-1.584 2.814-4.449 4.7-7.659 5.04-107.16 11.38-206.864 66.852-273.47 152.25-8.198 10.511-23.968-1.788-15.77-12.3 78.206-100.271 189.822-149.155 282.38-159.31 16.216-21.846 47.958-22.233 65.27-2.631 11.061.41 22.238 1.111 33.16 2.511 26.819 3.436 37.88 23.819 41.051 32.51l6.1 16.7c6.634 18.869 1.602 37.836-10.962 51.038zm-262.425 189.769c-25.593-9.11-52.23-13.946-78.695-13.946-40.583 0-80.917 10.705-116.71 32.164-22.122 13.263-21.348 44.618.595 56.873 39.795 22.226 85.157 34.1 131.315 34.1h108.853c-.002-.003-.001-.006 0-.009-.006-.006-.013-.013-.02-.019-13.924-12.88-32.037-19.973-51.003-19.973h-55.447c-52.286 0-91.191-14.142-119.217-29.039-4.876-2.593-6.729-8.647-4.136-13.523 2.592-4.879 8.647-6.73 13.524-4.137 33.088 17.589 69.447 26.619 106.195 26.776 23.735 0 44.104-2.825 62.175-8.297 31.237-9.457 30.657-50.973 2.571-60.97zm30.057-2.225c16.881-7.378 32.462-17.179 46.448-29.227v-74.006c-17 14.295-35.207 27.134-54.418 38.347l-62.195 36.299c35.613 6.551 57.419 12.616 70.165 28.587zm94.65-12.713c-4.157-8.146-5.938-17.406-5.151-26.78l6.946-82.702c.487-4.485-2.707-10.872-9.997-10.872-10.841 0-20 9.159-20 20 0 0-.013 96.364-.038 96.655-3.316 37.701-.78 75.499 7.538 112.346 2.024 8.972 10.221 15.483 19.488 15.482h79.292c-.001-.003 0-.006.001-.009-.005-.005-.011-.011-.017-.016-13.87-12.832-31.92-19.97-50.822-19.97-5.668 0-10.571-4.941-9.922-11.038 3.423-32.126-2.633-64.326-17.318-93.096zm123.398-188.812c5.214-5.33 8.124-12.353 8.239-19.803l-75.158 30.052c-16.616 6.645-31.432 16.455-44.034 29.161l-10.679 10.767c12.387 4.538 22.097 16.667 19.691 34.016 2.128-1.164 4.346-2.178 6.651-3.032 16.49-6.12 31.69-16 43.971-28.58zm-420.482 126.219c5.523 0 10-4.477 10-10s-4.477-10-10-10-10 4.477-10 10c.001 5.523 4.478 10 10 10z"/></g></svg>